<svg xmlns="http://www.w3.org/2000/svg" viewBox="0 0 1200 630" width="1200" height="630">
  <defs>
    <linearGradient id="bg" x1="0" y1="0" x2="1" y2="1">
      <stop offset="0%" stop-color="#0f172a"/>
      <stop offset="100%" stop-color="#1e293b"/>
    </linearGradient>
    <radialGradient id="glow" cx="0.2" cy="0.2" r="0.6">
      <stop offset="0%" stop-color="#c4a8db" stop-opacity="0.20"/>
      <stop offset="100%" stop-color="#c4a8db" stop-opacity="0"/>
    </radialGradient>
    <radialGradient id="glow2" cx="0.85" cy="0.15" r="0.5">
      <stop offset="0%" stop-color="#9bb3d4" stop-opacity="0.14"/>
      <stop offset="100%" stop-color="#9bb3d4" stop-opacity="0"/>
    </radialGradient>
    <pattern id="grid" width="56" height="56" patternUnits="userSpaceOnUse">
      <path d="M 56 0 L 0 0 0 56" fill="none" stroke="#334155" stroke-width="1"/>
    </pattern>
  </defs>

  <rect width="1200" height="630" fill="url(#bg)"/>
  <rect width="1200" height="630" fill="url(#grid)" opacity="0.4"/>
  <rect width="1200" height="630" fill="url(#glow)"/>
  <rect width="1200" height="630" fill="url(#glow2)"/>

  <!-- top brand line -->
  <g transform="translate(80, 80)">
    <circle cx="8" cy="8" r="8" fill="#c4a8db"/>
    <text x="28" y="14" font-family="ui-monospace, Menlo, monospace" font-size="20" fill="#f1f5f9" font-weight="500">pooja<tspan fill="#94a3b8">@</tspan>kannan</text>
  </g>

  <!-- eyebrow -->
  <g transform="translate(80, 200)">
    <line x1="0" y1="12" x2="40" y2="12" stroke="#c4a8db" stroke-width="2"/>
    <text x="56" y="18" font-family="ui-monospace, Menlo, monospace" font-size="20" fill="#c4a8db" letter-spacing="3" font-weight="500">FULL-STACK DEVELOPER · BASILDON, UK</text>
  </g>

  <!-- main name -->
  <text x="80" y="340" font-family="Georgia, serif" font-size="120" fill="#f1f5f9" font-weight="300" letter-spacing="-3">Pooja <tspan fill="#c4a8db" font-style="italic">Kannan</tspan></text>

  <!-- tagline -->
  <text x="80" y="410" font-family="system-ui, sans-serif" font-size="28" fill="#cbd5e1" font-weight="300">React · Node.js · AWS · TypeScript · MongoDB</text>
  <text x="80" y="450" font-family="system-ui, sans-serif" font-size="22" fill="#94a3b8" font-weight="300">3+ years production · MSc Liverpool · Open to UK roles</text>

  <!-- bottom row chips -->
  <g transform="translate(80, 510)" font-family="ui-monospace, Menlo, monospace" font-size="18" fill="#f1f5f9">
    <g>
      <rect x="0" y="0" width="180" height="44" rx="6" fill="#1e293b" stroke="#3e4d66"/>
      <text x="90" y="29" text-anchor="middle">React</text>
    </g>
    <g transform="translate(196, 0)">
      <rect x="0" y="0" width="180" height="44" rx="6" fill="#1e293b" stroke="#3e4d66"/>
      <text x="90" y="29" text-anchor="middle">Node.js</text>
    </g>
    <g transform="translate(392, 0)">
      <rect x="0" y="0" width="180" height="44" rx="6" fill="#1e293b" stroke="#3e4d66"/>
      <text x="90" y="29" text-anchor="middle">AWS</text>
    </g>
    <g transform="translate(588, 0)">
      <rect x="0" y="0" width="200" height="44" rx="6" fill="#1e293b" stroke="#3e4d66"/>
      <text x="100" y="29" text-anchor="middle">TypeScript</text>
    </g>
  </g>

  <!-- top-right URL -->
  <text x="1120" y="100" text-anchor="end" font-family="ui-monospace, Menlo, monospace" font-size="18" fill="#94a3b8">poojakannanv.github.io</text>
</svg>
